<svg width="16" height="16" viewBox="0 0 16 16" fill="none" xmlns="http://www.w3.org/2000/svg">
<g clip-path="url(#clip0_451_2)">
<rect width="16" height="16" fill="#005EFF"/>
<path d="M4.906 14.4427C4.2928 14.4427 3.7384 14.3377 3.2428 14.1277C2.7556 13.9177 2.3692 13.6153 2.0836 13.2205C1.798 12.8257 1.651 12.3595 1.6426 11.8219H3.5326C3.5578 12.1831 3.6838 12.4687 3.9106 12.6787C4.1458 12.8887 4.465 12.9937 4.8682 12.9937C5.2798 12.9937 5.6032 12.8971 5.8384 12.7039C6.0736 12.5023 6.1912 12.2419 6.1912 11.9227C6.1912 11.6623 6.1114 11.4481 5.9518 11.2801C5.7922 11.1121 5.5906 10.9819 5.347 10.8895C5.1118 10.7887 4.7842 10.6795 4.3642 10.5619C3.793 10.3939 3.3268 10.2301 2.9656 10.0705C2.6128 9.90249 2.3062 9.65469 2.0458 9.32709C1.7938 8.99109 1.6678 8.54589 1.6678 7.99149C1.6678 7.47069 1.798 7.01709 2.0584 6.63069C2.3188 6.24429 2.6842 5.95029 3.1546 5.74869C3.625 5.53869 4.1626 5.43369 4.7674 5.43369C5.6746 5.43369 6.4096 5.65629 6.9724 6.10149C7.5436 6.53829 7.8586 7.15149 7.9174 7.94109H5.977C5.9602 7.63869 5.83 7.39089 5.5864 7.19769C5.3512 6.99609 5.0362 6.89529 4.6414 6.89529C4.297 6.89529 4.0198 6.98349 3.8098 7.15989C3.6082 7.33629 3.5074 7.59249 3.5074 7.92849C3.5074 8.16369 3.583 8.36109 3.7342 8.52069C3.8938 8.67189 4.087 8.79789 4.3138 8.89869C4.549 8.99109 4.8766 9.10029 5.2966 9.22629C5.8678 9.39429 6.334 9.56229 6.6952 9.73029C7.0564 9.89829 7.3672 10.1503 7.6276 10.4863C7.888 10.8223 8.0182 11.2633 8.0182 11.8093C8.0182 12.2797 7.8964 12.7165 7.6528 13.1197C7.4092 13.5229 7.0522 13.8463 6.5818 14.0899C6.1114 14.3251 5.5528 14.4427 4.906 14.4427ZM10.0767 14.4427C9.75753 14.4427 9.49293 14.3461 9.28293 14.1529C9.08133 13.9513 8.98053 13.7035 8.98053 13.4095C8.98053 13.1155 9.08133 12.8719 9.28293 12.6787C9.49293 12.4771 9.75753 12.3763 10.0767 12.3763C10.3875 12.3763 10.6437 12.4771 10.8453 12.6787C11.0469 12.8719 11.1477 13.1155 11.1477 13.4095C11.1477 13.7035 11.0469 13.9513 10.8453 14.1529C10.6437 14.3461 10.3875 14.4427 10.0767 14.4427Z" fill="white"/>
</g>
<defs>
<clipPath id="clip0_451_2">
<rect width="16" height="16" fill="white"/>
</clipPath>
</defs>
</svg>
